<?xml version="1.0" encoding="UTF-8" standalone="no"?>
<svg
   version="1.0"
   width="320"
   height="320"
   viewBox="0 0 64.000000 64.000000"
   id="svg930"
   sodipodi:docname="B2.svg"
   inkscape:version="1.1.1 (3bf5ae0d25, 2021-09-20)"
   xmlns:inkscape="http://www.inkscape.org/namespaces/inkscape"
   xmlns:sodipodi="http://sodipodi.sourceforge.net/DTD/sodipodi-0.dtd"
   xmlns="http://www.w3.org/2000/svg"
   xmlns:svg="http://www.w3.org/2000/svg">
  <defs
     id="defs934">
    <linearGradient
       id="linearGradient5962"
       inkscape:swatch="solid">
      <stop
         style="stop-color:#989898;stop-opacity:1;"
         offset="0"
         id="stop5960" />
    </linearGradient>
  </defs>
  <sodipodi:namedview
     id="namedview932"
     pagecolor="#ffffff"
     bordercolor="#666666"
     borderopacity="1.0"
     inkscape:pageshadow="2"
     inkscape:pageopacity="0.0"
     inkscape:pagecheckerboard="0"
     showgrid="false"
     inkscape:zoom="1.1234375"
     inkscape:cx="-192.26704"
     inkscape:cy="260.36161"
     inkscape:window-width="3840"
     inkscape:window-height="2071"
     inkscape:window-x="-9"
     inkscape:window-y="-9"
     inkscape:window-maximized="1"
     inkscape:current-layer="g928" />
  <g
     transform="translate(0,-0.13195806)"
     id="g928">
    <path
       d="m 27.140583,2.537232 h 9.540809 l 2.862242,0.9540809 2.862243,0.9540808 0.954081,0.9540809 1.908162,0.9540808 5.724484,5.7244846 0.954082,1.908162 0.95408,0.954081 0.954081,2.862243 0.954081,2.862242 v 9.540809 l -0.954081,2.862242 -0.954081,2.862243 -0.95408,0.95408 -0.954082,1.908163 -5.724484,5.724484 -1.908162,0.954081 -0.954081,0.954081 -1.908162,0.95408 -1.908162,0.954082 -1.908161,7.632646 h -0.954081 l 1.908161,-7.632646 -2.862242,0.954081 h -5.724486 l -2.862241,-0.954081 1.908161,7.632646 h 8.586728 v 5.724486 H 27.140583 V 55.965759 L 25.232421,48.333113 23.32426,47.379031 21.416098,46.424951 20.462018,45.47087 18.553855,44.516789 12.82937,38.792305 11.87529,36.884142 10.921209,35.930062 9.9671281,33.067819 9.0130472,30.205577 v -9.540809 l 0.9540809,-2.862242 0.9540809,-2.862243 0.954081,-0.954081 0.95408,-1.908162 5.724485,-5.7244846 1.908163,-0.9540808 0.95408,-0.9540809 2.862243,-0.9540808 z"
       fill="#6ba7ff"
       stroke="#6ba7ff"
       stroke-width="0.1"
       id="path926"
       style="fill:#6ba7ff;fill-opacity:1;stroke:#414141;stroke-width:2.2898;stroke-linecap:round;stroke-linejoin:round;stroke-miterlimit:4;stroke-dasharray:none;stroke-dashoffset:20;stroke-opacity:1;paint-order:stroke fill markers" />
  </g>
</svg>
