<?xml version="1.0" encoding="UTF-8" standalone="no"?>
<svg
   version="1.0"
   width="320"
   height="320"
   viewBox="0 0 64.000000 64.000000"
   id="svg930"
   sodipodi:docname="B3.svg"
   inkscape:version="1.3 (0e150ed6c4, 2023-07-21)"
   xml:space="preserve"
   xmlns:inkscape="http://www.inkscape.org/namespaces/inkscape"
   xmlns:sodipodi="http://sodipodi.sourceforge.net/DTD/sodipodi-0.dtd"
   xmlns="http://www.w3.org/2000/svg"
   xmlns:svg="http://www.w3.org/2000/svg"><defs
     id="defs934"><linearGradient
       id="linearGradient5962"
       inkscape:swatch="solid"><stop
         style="stop-color:#989898;stop-opacity:1;"
         offset="0"
         id="stop5960" /></linearGradient></defs><sodipodi:namedview
     id="namedview932"
     pagecolor="#ffffff"
     bordercolor="#666666"
     borderopacity="1.0"
     inkscape:pageshadow="2"
     inkscape:pageopacity="0.0"
     inkscape:pagecheckerboard="0"
     showgrid="false"
     inkscape:zoom="1.5887805"
     inkscape:cx="136.26803"
     inkscape:cy="-148.22689"
     inkscape:window-width="1080"
     inkscape:window-height="1849"
     inkscape:window-x="-8"
     inkscape:window-y="-8"
     inkscape:window-maximized="1"
     inkscape:current-layer="g928"
     inkscape:showpageshadow="2"
     inkscape:deskcolor="#d1d1d1" /><g
     transform="translate(0,-0.13195806)"
     id="g928"><path
       style="fill:#6ba7ff;fill-opacity:1;stroke:#000000;stroke-width:0.8;stroke-dasharray:none;stroke-opacity:1"
       d="m 29.043289,55.185095 c -0.810849,-2.79401 -0.812369,-2.943332 -0.04366,-4.288033 0.588939,-1.030224 0.744634,-1.719214 0.747478,-3.307746 0.0034,-1.946301 -0.02099,-2.012039 -0.816174,-2.192141 -2.63141,-0.595996 -2.588195,-0.569937 -2.95349,-1.781081 -0.194852,-0.646041 -0.364586,-1.600634 -0.377186,-2.121317 -0.01966,-0.812584 -0.527969,-1.421122 -3.588119,-4.295669 -1.960866,-1.841934 -3.493544,-3.464931 -3.405953,-3.606659 0.0876,-0.14173 0.03149,-0.220827 -0.124649,-0.175776 -0.156152,0.04506 -1.450906,-1.040522 -2.877234,-2.412381 l -2.593322,-2.49429 0.192655,-1.530011 c 0.520144,-4.130841 1.646844,-7.026817 3.884102,-9.983372 3.442124,-4.548793 8.809017,-7.181747 14.660439,-7.1922936 2.947796,-0.00537 5.024717,0.3951866 7.333241,1.4140946 1.248485,0.55104 1.621436,0.840092 1.341434,1.039662 -0.269191,0.191865 -0.181502,0.231153 0.286666,0.128435 0.475415,-0.104304 1.188835,0.230652 2.41713,1.134871 4.13802,3.046236 6.760215,7.839549 7.340941,13.419074 l 0.186158,1.788578 -2.495754,2.278997 c -2.430651,2.219546 -2.492456,2.254538 -2.369309,1.341433 0.07379,-0.547181 0.572065,-1.403017 1.196669,-2.055423 l 1.070223,-1.117862 -2.519794,0.0098 c -2.254768,0.0088 -2.645204,0.09636 -3.712178,0.831853 -1.002772,0.691244 -1.207684,1.009642 -1.28859,2.002248 -0.06914,0.848247 -0.734599,2.207618 -2.365423,4.831979 -2.134323,3.434602 -2.753274,4.07997 -3.207732,3.34464 -0.104364,-0.168872 1.20879,-2.549917 2.91813,-5.291211 1.709339,-2.741293 3.206439,-5.157031 3.326888,-5.368305 0.173353,-0.30407 -0.357298,-0.366201 -2.546004,-0.298096 l -2.765004,0.08605 -0.972043,4.620494 c -0.534624,2.541272 -0.978284,4.788174 -0.98591,4.993115 -0.01903,0.511292 -1.206252,0.47435 -1.206252,-0.03753 0,-0.589361 1.783253,-9.177246 1.967554,-9.475451 0.08487,-0.137318 -1.127973,-0.249672 -2.695203,-0.249672 -1.56723,0 -2.849508,0.110817 -2.849508,0.246272 0,0.135455 0.412858,2.29197 0.917464,4.792263 0.919137,4.554286 0.953002,5.521941 0.182903,5.226426 -0.265867,-0.102023 -0.759566,-1.876602 -1.387723,-4.98809 -0.536269,-2.656349 -1.061179,-4.924915 -1.166467,-5.041256 -0.105288,-0.116332 -1.09561,-0.236402 -2.200719,-0.266805 -1.105109,-0.03041 -2.009291,-0.177883 -2.009291,-0.327733 0,-0.149852 0.154871,-0.176741 0.344156,-0.05975 0.219788,0.135842 0.262955,0.08132 0.119462,-0.150875 -0.169049,-0.273527 -0.363646,-0.23783 -0.785708,0.14413 -0.462365,0.418435 -0.641879,0.440587 -1.020947,0.125991 -0.252968,-0.209944 -0.546128,-0.295529 -0.651467,-0.190189 -0.105348,0.105347 -0.03923,0.191527 0.146902,0.191527 0.187505,0 0.263588,0.232634 0.170611,0.521669 -0.127824,0.39735 -0.09895,0.425285 0.121146,0.117226 0.202026,-0.282771 0.350296,-0.305191 0.492858,-0.07452 0.112143,0.181457 0.09538,0.331977 -0.03726,0.334487 -0.132638,0.0025 -0.06995,0.113217 0.139315,0.246023 0.667269,0.423458 6.276484,9.668664 6.1175,10.08297 -0.340748,0.887973 -0.960586,0.19332 -3.70325,-4.150235 -2.093145,-3.314911 -2.787175,-4.646415 -2.566179,-4.923238 0.230594,-0.288846 0.173735,-0.32987 -0.238141,-0.171819 -0.426725,0.16375 -0.499348,0.09892 -0.343674,-0.306755 0.111712,-0.291108 0.07597,-0.439339 -0.08233,-0.341499 -0.153849,0.09508 -0.420219,-0.08964 -0.591933,-0.410485 -0.26781,-0.50041 -0.693929,-0.596974 -2.996603,-0.679066 -1.47642,-0.05263 -2.68409,-0.07955 -2.683714,-0.0598 3.77e-4,0.01975 3.166895,3.092329 7.036707,6.827952 l 7.036022,6.792044 0.73609,-0.940548 c 0.508192,-0.649349 0.99019,-0.940547 1.55681,-0.940547 0.85082,0 2.117033,1.063497 2.117033,1.778104 0,0.219037 1.871912,-1.432865 4.159807,-3.670893 2.287892,-2.238027 4.404339,-4.069139 4.703212,-4.069139 0.87405,0 1.836709,-0.846244 2.1346,-1.87646 l 0.276274,-0.955456 0.02689,0.89355 c 0.02307,0.76677 -0.481767,1.380055 -3.558061,4.322398 -3.230682,3.090009 -3.585839,3.53195 -3.593983,4.472185 -0.0049,0.573835 -0.169143,1.505133 -0.364831,2.069549 -0.359625,1.037262 -0.372674,1.044443 -2.964138,1.631392 -0.782838,0.177306 -0.819765,0.26643 -0.819765,1.978479 0,1.330415 0.195894,2.179389 0.759526,3.291663 0.41774,0.82437 0.694011,1.725379 0.613935,2.002242 -0.08007,0.276863 -0.292888,1.073495 -0.472919,1.770296 -0.189291,0.73264 -0.50363,1.266909 -0.745392,1.266909 -0.653452,0 -0.724875,-0.350412 -0.379263,-1.860738 0.270866,-1.183692 0.236417,-1.591832 -0.21975,-2.603427 -0.490112,-1.086877 -0.644564,-1.199666 -1.642812,-1.199666 -0.992099,0 -1.153964,0.115587 -1.625184,1.160571 -0.433645,0.961653 -0.470782,1.407018 -0.216674,2.598453 0.168669,0.790834 0.241741,1.542939 0.162382,1.671344 -0.261805,0.423609 -0.960461,0.242956 -1.11461,-0.288205 z m 3.688375,-7.974078 c 0,-1.62297 -0.0091,-1.63953 -0.894289,-1.63953 -0.885257,0 -0.894289,0.01656 -0.894289,1.63953 0,1.622969 0.0091,1.63953 0.894289,1.63953 0.885255,0 0.894289,-0.01656 0.894289,-1.63953 z m -3.605286,-3.204536 c -0.07013,-0.04099 -0.621449,-0.529435 -1.225171,-1.085435 -1.025562,-0.944499 -1.086492,-0.964082 -0.927468,-0.298096 0.206244,0.86375 0.895593,1.458055 1.691233,1.458055 0.323895,0 0.531527,-0.03354 0.461406,-0.07452 z m 6.779944,-0.105541 c 0.425524,-0.114171 0.684096,-0.466654 0.769581,-1.049103 l 0.128748,-0.877171 -1.064389,0.978649 c -0.585414,0.538256 -1.121762,1.012185 -1.191884,1.053173 -0.24083,0.140776 0.717475,0.06628 1.35795,-0.105541 z m -3.460339,-0.58013 c 0.316811,-0.381734 0.297237,-0.548383 -0.112546,-0.958167 -0.462684,-0.462684 -0.529438,-0.462684 -0.992123,0 -0.409784,0.409784 -0.429358,0.576433 -0.112546,0.958167 0.48252,0.581401 0.734699,0.581401 1.217218,0 z m -12.99234,-9.354478 c 0.09433,-0.152624 0.05753,-0.347938 -0.08177,-0.434032 -0.1393,-0.08609 -0.253276,0.03878 -0.253276,0.2775 0,0.50264 0.094,0.546557 0.335048,0.156532 z m 5.278947,-5.647517 c -0.545415,-0.34574 0.233952,-0.633112 1.717025,-0.633112 h 1.1216 l 0.190588,-4.247873 c 0.209049,-4.659302 0.857431,-9.214161 1.546333,-10.862939 0.243411,-0.582562 0.442564,-1.118477 0.442564,-1.19092 0,-0.07244 -0.552043,0.178548 -1.226762,0.557761 -3.327504,1.870163 -6.166543,7.605018 -6.704666,13.543425 l -0.199409,2.200546 h 1.201609 c 0.793106,0 1.259943,0.152013 1.373196,0.447145 0.09438,0.245929 0.343474,0.44509 0.553562,0.442579 0.298612,-0.0036 0.295199,-0.05957 -0.01563,-0.256612 z m -4.120647,-2.943359 c 0.371994,-4.508972 1.812275,-8.566071 4.126661,-11.624309 l 1.408846,-1.861652 -1.104816,0.453784 c -1.973527,0.810593 -5.140107,3.174174 -6.516856,4.864279 -2.273391,2.790825 -3.977995,6.860558 -3.977995,9.497436 v 0.980709 h 2.936781 2.936782 z m 14.107052,-1.788578 c -0.331218,-7.067803 -1.569149,-12.445526 -2.864912,-12.445526 -0.656922,0 -1.441673,1.586069 -1.923356,3.887316 -0.505569,2.415355 -1.071831,8.11014 -1.073298,10.793933 l -0.001,1.863102 h 3.027333 3.027334 z m 7.253657,2.961188 c 0,-1.594369 -0.518343,-4.342118 -1.235411,-6.548938 -0.600776,-1.848925 -0.570434,-2.901603 0.07742,-2.685656 0.814029,0.271344 2.350388,6.068789 2.350388,8.869181 v 1.50305 h 3.080117 3.080118 l -0.22152,-1.632383 c -0.522933,-3.853494 -2.767313,-8.157649 -5.509011,-10.564892 -1.481864,-1.301094 -3.896016,-2.821383 -5.171719,-3.256841 -0.974719,-0.332719 -0.99582,-0.324658 -0.521669,0.199273 0.271776,0.300308 0.494138,0.778121 0.494138,1.061805 0,0.283683 0.124962,0.438556 0.277699,0.344161 0.355677,-0.219819 1.212783,0.992296 1.212783,1.715111 0,0.890526 -0.707664,0.474988 -2.11545,-1.242182 -0.721963,-0.880628 -1.881322,-1.933007 -2.576356,-2.338619 l -1.263696,-0.737479 0.453838,1.286313 c 0.772875,2.19056 1.341538,6.181816 1.534313,10.768811 l 0.184785,4.396922 h 2.93462 2.934621 z m 1.63953,7.099565 c 0.296751,-0.327906 0.606619,-0.596193 0.688596,-0.596193 0.08198,0 -0.09375,0.268287 -0.390499,0.596193 -0.296751,0.327906 -0.606619,0.596193 -0.688595,0.596193 -0.08198,0 0.09375,-0.268287 0.390498,-0.596193 z"
       id="path4" /></g></svg>
