<?xml version="1.0" encoding="UTF-8" standalone="no"?>
<svg
   version="1.0"
   width="320"
   height="320"
   viewBox="0 0 64.000000 64.000000"
   id="svg930"
   sodipodi:docname="B4.svg"
   inkscape:version="1.3 (0e150ed6c4, 2023-07-21)"
   xml:space="preserve"
   xmlns:inkscape="http://www.inkscape.org/namespaces/inkscape"
   xmlns:sodipodi="http://sodipodi.sourceforge.net/DTD/sodipodi-0.dtd"
   xmlns="http://www.w3.org/2000/svg"
   xmlns:svg="http://www.w3.org/2000/svg"><defs
     id="defs934"><linearGradient
       id="linearGradient5962"
       inkscape:swatch="solid"><stop
         style="stop-color:#989898;stop-opacity:1;"
         offset="0"
         id="stop5960" /></linearGradient></defs><sodipodi:namedview
     id="namedview932"
     pagecolor="#ffffff"
     bordercolor="#666666"
     borderopacity="1.0"
     inkscape:pageshadow="2"
     inkscape:pageopacity="0.0"
     inkscape:pagecheckerboard="0"
     showgrid="false"
     inkscape:zoom="1.5887805"
     inkscape:cx="265.29781"
     inkscape:cy="-28.638316"
     inkscape:window-width="1080"
     inkscape:window-height="1849"
     inkscape:window-x="-8"
     inkscape:window-y="-8"
     inkscape:window-maximized="1"
     inkscape:current-layer="g928"
     inkscape:showpageshadow="2"
     inkscape:deskcolor="#d1d1d1" /><g
     transform="translate(0,-0.13195806)"
     id="g928"><path
       style="fill:#6ba7ff;fill-opacity:1;stroke:#000000;stroke-width:1.2;stroke-dasharray:none;stroke-opacity:1"
       d="m 30.520548,55.233306 c -3.044832,-0.07994 -7.359686,0.340545 -9.487258,-2.321096 -2.11129,-2.595732 -1.764019,-6.745791 0.987102,-8.754377 2.158768,-1.607436 5.037093,-1.033375 7.570231,-1.322909 1.253413,0.263724 0.557752,-1.358242 0.759304,-2.112176 0.05039,-2.98089 0.100795,-5.961783 0.151193,-8.942675 H 5.6952417 C 5.8457563,27.305245 5.6293847,22.800191 6.128798,18.35094 c 0.667246,-2.928449 2.4888859,-4.184833 4.618328,-4.71226 5.252442,-0.155651 10.517585,-0.08634 15.758374,-0.477999 1.70758,-0.694786 0.7766,-3.6204064 2.643473,-4.8635174 1.487505,-1.2806141 5.115494,-1.2411501 6.602292,0.7408376 1.119093,0.60165 0.113463,4.7022178 1.669382,4.4348838 5.113323,0.09361 10.25647,-0.241817 15.342841,0.358587 3.292966,0.634118 5.305503,4.065275 5.272591,7.259332 0.223639,3.558367 0.216801,7.126052 0.313796,10.689283 H 33.535646 v 11.188157 c 2.8896,0.161499 6.210384,-0.668744 8.545887,1.505475 3.329702,2.849171 2.167044,9.138021 -2.1754,10.252668 -2.073516,0.583123 -4.243266,0.397398 -6.370487,0.447155 v 4.407456 H 30.484328 Z M 58.003329,25.56666 c -0.04668,-1.079886 0.03717,-1.132254 -0.179374,-2.155071 L 6.0849592,23.033941 5.9681607,25.204077 Z"
       id="path2"
       sodipodi:nodetypes="ccccccccccccccccccccccccccccc" /></g></svg>
