<?xml version="1.0" encoding="UTF-8" standalone="no"?>
<svg
   version="1.0"
   width="320"
   height="320"
   viewBox="0 0 64.000000 64.000000"
   id="svg930"
   sodipodi:docname="C0.svg"
   inkscape:version="1.1.1 (3bf5ae0d25, 2021-09-20)"
   xmlns:inkscape="http://www.inkscape.org/namespaces/inkscape"
   xmlns:sodipodi="http://sodipodi.sourceforge.net/DTD/sodipodi-0.dtd"
   xmlns="http://www.w3.org/2000/svg"
   xmlns:svg="http://www.w3.org/2000/svg">
  <defs
     id="defs934">
    <linearGradient
       id="linearGradient5962"
       inkscape:swatch="solid">
      <stop
         style="stop-color:#989898;stop-opacity:1;"
         offset="0"
         id="stop5960" />
    </linearGradient>
  </defs>
  <sodipodi:namedview
     id="namedview932"
     pagecolor="#ffffff"
     bordercolor="#666666"
     borderopacity="1.0"
     inkscape:pageshadow="2"
     inkscape:pageopacity="0.0"
     inkscape:pagecheckerboard="0"
     showgrid="false"
     inkscape:zoom="8.9875"
     inkscape:cx="118.27538"
     inkscape:cy="165.28512"
     inkscape:window-width="3840"
     inkscape:window-height="2071"
     inkscape:window-x="-9"
     inkscape:window-y="-9"
     inkscape:window-maximized="1"
     inkscape:current-layer="g928" />
  <g
     transform="translate(0,-0.13195806)"
     id="g928">
    <path
       d="m 32.077362,2.1524597 0.327962,0.1093207 0.874565,1.3118483 0.983886,3.3889414 0.655925,3.3889409 0.546603,5.684676 v 7.543128 l 3.935545,2.951659 -0.218642,-1.639811 v -1.63981 l 0.109321,-1.311848 0.218642,-0.437283 h 3.060979 l 0.218641,0.437283 0.109321,1.311848 v 1.63981 l -0.437283,2.405055 h -0.327962 l -0.109321,0.983887 15.304897,8.417693 0.437283,0.437282 0.218641,0.765245 v 1.639811 l -9.073617,-2.623697 -0.109321,0.437283 -0.218641,0.218641 -0.218642,-0.218641 -0.10932,-0.546604 -4.044866,-1.202527 -0.109321,0.437283 -0.218641,0.218641 -0.218641,-0.218641 -0.109321,-0.546604 -2.186414,-0.655924 v 1.093207 l -0.10932,0.546603 -0.109321,0.109321 h -0.437283 l -0.109321,-0.109321 -0.10932,-0.546603 v -1.421169 h -5.028752 v 8.417693 l -0.109321,3.060979 -0.655924,4.044866 -0.655924,3.279621 0.109321,0.437282 9.292258,6.44992 v 1.967772 L 32.514644,59.4365 32.296003,60.201745 32.186682,61.07631 32.077362,61.513593 31.968041,61.07631 31.85872,60.201745 31.640079,59.4365 20.70801,62.169517 v -1.967772 l 9.292259,-6.44992 0.10932,-0.437282 -0.655924,-3.279621 -0.655924,-4.044866 -0.109321,-3.060979 v -8.417693 h -5.028751 v 1.421169 l -0.109321,0.546603 -0.109321,0.109321 h -0.437283 l -0.10932,-0.109321 -0.109321,-0.546603 v -1.093207 l -2.186414,0.655924 -0.10932,0.546604 -0.218642,0.218641 -0.218641,-0.218641 -0.109321,-0.437283 -4.044865,1.202527 -0.109321,0.546604 -0.218641,0.218641 -0.218642,-0.218641 -0.109321,-0.437283 -9.0736165,2.623697 V 37.900325 L 6.3869999,37.13508 6.8242826,36.697798 22.129179,28.280105 22.019858,27.296218 h -0.327962 l -0.437283,-2.405055 v -1.63981 l 0.109321,-1.311848 0.218641,-0.437283 h 3.06098 l 0.218641,0.437283 0.109321,1.749131 v 1.202527 l -0.218642,1.639811 3.935545,-3.06098 V 16.036187 L 29.235024,10.351511 29.890948,6.9625701 30.984155,3.5736287 31.7494,2.2617804 Z"
       fill="#6ba7ff"
       stroke="#6ba7ff"
       stroke-width="0.1"
       id="path926"
       style="fill:#6ba7ff;fill-opacity:1;stroke:#414141;stroke-width:2.6237;stroke-linecap:round;stroke-linejoin:round;stroke-miterlimit:4;stroke-dasharray:none;stroke-dashoffset:20;stroke-opacity:1;paint-order:stroke fill markers" />
    <rect
       style="fill:#666666;fill-opacity:0.193548;stroke:#414141;stroke-width:1.68203;stroke-linecap:round;stroke-linejoin:round;stroke-dashoffset:100;paint-order:stroke fill markers"
       id="rect940-4"
       width="13.790386"
       height="0.058845293"
       x="-51.243149"
       y="-6.9803319"
       transform="matrix(-0.62668628,-0.77927165,-0.62668628,0.77927165,0,0)" />
    <rect
       style="fill:#666666;fill-opacity:0.193548;stroke:#414141;stroke-width:1.68203;stroke-linecap:round;stroke-linejoin:round;stroke-dashoffset:100;paint-order:stroke fill markers"
       id="rect940-4-1"
       width="13.790386"
       height="0.058845293"
       x="-0.096020512"
       y="44.233639"
       transform="matrix(0.62668628,-0.77927165,0.62668628,0.77927165,0,0)" />
    <rect
       style="fill:#666666;fill-opacity:0.193548;stroke:#414141;stroke-width:1.90885;stroke-linecap:round;stroke-linejoin:round;stroke-dashoffset:100;paint-order:stroke fill markers"
       id="rect940-4-1-6"
       width="15.650017"
       height="0.066780567"
       x="-1.8078041"
       y="42.88586"
       transform="matrix(0.63139988,-0.77545741,0.63139988,0.77545741,0,0)" />
    <rect
       style="fill:#666666;fill-opacity:0.193548;stroke:#414141;stroke-width:1.90885;stroke-linecap:round;stroke-linejoin:round;stroke-dashoffset:100;paint-order:stroke fill markers"
       id="rect940-4-1-6-0"
       width="15.650017"
       height="0.066780567"
       x="-52.61446"
       y="-7.8634028"
       transform="matrix(-0.63139988,-0.77545741,-0.63139988,0.77545741,0,0)" />
  </g>
</svg>
