<?xml version="1.0" encoding="UTF-8" standalone="no"?>
<svg
   version="1.0"
   width="320"
   height="320"
   viewBox="0 0 64.000000 64.000000"
   id="svg930"
   sodipodi:docname="A4.svg"
   inkscape:version="1.1.1 (3bf5ae0d25, 2021-09-20)"
   xmlns:inkscape="http://www.inkscape.org/namespaces/inkscape"
   xmlns:sodipodi="http://sodipodi.sourceforge.net/DTD/sodipodi-0.dtd"
   xmlns="http://www.w3.org/2000/svg"
   xmlns:svg="http://www.w3.org/2000/svg">
  <defs
     id="defs934">
    <linearGradient
       id="linearGradient5962"
       inkscape:swatch="solid">
      <stop
         style="stop-color:#989898;stop-opacity:1;"
         offset="0"
         id="stop5960" />
    </linearGradient>
  </defs>
  <sodipodi:namedview
     id="namedview932"
     pagecolor="#ffffff"
     bordercolor="#666666"
     borderopacity="1.0"
     inkscape:pageshadow="2"
     inkscape:pageopacity="0.0"
     inkscape:pagecheckerboard="0"
     showgrid="false"
     inkscape:zoom="4.49375"
     inkscape:cx="109.4854"
     inkscape:cy="132.73992"
     inkscape:window-width="3840"
     inkscape:window-height="2071"
     inkscape:window-x="-9"
     inkscape:window-y="-9"
     inkscape:window-maximized="1"
     inkscape:current-layer="g928" />
  <g
     transform="translate(0,-0.13195806)"
     id="g928">
    <path
       d="m 31.874184,2.1334805 0.219141,0.1095704 0.328711,0.3287112 0.657422,0.8765632 0.766994,1.8626969 0.328711,2.1914081 0.10957,2.7392597 v 14.025012 l 0.657422,1.205275 3.396683,1.862697 -0.109571,-1.205275 v -1.314845 l 0.219141,-1.205274 0.109571,-0.219141 h 2.62969 l 0.10957,0.219141 0.219141,1.205274 v 1.314845 l -0.219141,1.753126 h -0.219141 l -0.109571,0.766993 14.572864,7.779499 0.328712,0.547852 v 2.52012 l -7.99864,-2.191409 -0.109571,0.986134 -0.21914,-0.328712 -0.10957,-0.766993 -3.615824,-0.986132 -0.10957,0.766992 -0.109571,0.21914 -0.10957,-0.21914 -0.10957,-0.876563 -2.300979,-0.547852 h -1.533985 l -0.109571,0.876563 -0.10957,0.219141 -0.109571,-0.219141 -0.109571,-0.876563 h -4.821097 v 11.724033 l -0.10957,2.081837 -0.438282,3.944535 0.438282,0.766993 7.231647,4.930668 v 2.300979 l -8.546492,-2.081838 -0.219141,0.876563 -0.657422,2.081838 h -0.219141 l -0.657422,-2.081838 -0.219141,-0.876563 -8.546492,2.081838 V 59.00052 l 7.231646,-4.930668 0.438282,-0.766993 -0.438282,-3.944535 -0.109569,-2.081837 V 35.552454 h -4.821099 l -0.10957,0.876563 -0.109571,0.219141 -0.109569,-0.219141 -0.109571,-0.876563 H 22.67027 l -2.300978,0.547852 -0.109571,0.876563 -0.10957,0.21914 -0.109571,-0.21914 -0.109569,-0.766992 -3.615824,0.986132 -0.10957,0.766993 -0.219142,0.328712 -0.10957,-0.986134 -7.9986393,2.191409 v -2.52012 L 8.2069769,36.429017 22.77984,28.649518 22.67027,27.882525 H 22.45113 L 22.231989,26.129399 V 24.814554 L 22.45113,23.60928 22.5607,23.390139 h 2.629689 l 0.109571,0.219141 0.219141,1.205274 v 1.314845 l -0.109571,1.205275 3.396683,-1.862697 0.657423,-1.205275 V 10.24169 L 29.573205,7.5024303 29.901917,5.3110222 30.66891,3.4483253 31.326332,2.5717621 31.655043,2.2430509 Z"
       fill="#6ba7ff"
       stroke="#6ba7ff"
       stroke-width="0.1"
       id="path926"
       style="fill:#6ba7ff;fill-opacity:1;stroke:#414141;stroke-width:2.62969;stroke-linecap:round;stroke-linejoin:round;stroke-miterlimit:4;stroke-dasharray:none;stroke-dashoffset:20;stroke-opacity:1;paint-order:stroke fill markers" />
  </g>
</svg>
