<?xml version="1.0" encoding="UTF-8" standalone="no"?>
<svg
   version="1.0"
   width="320"
   height="320"
   viewBox="0 0 64.000000 64.000000"
   id="svg930"
   sodipodi:docname="A5.svg"
   inkscape:version="1.1.1 (3bf5ae0d25, 2021-09-20)"
   xmlns:inkscape="http://www.inkscape.org/namespaces/inkscape"
   xmlns:sodipodi="http://sodipodi.sourceforge.net/DTD/sodipodi-0.dtd"
   xmlns="http://www.w3.org/2000/svg"
   xmlns:svg="http://www.w3.org/2000/svg">
  <defs
     id="defs934">
    <linearGradient
       id="linearGradient5962"
       inkscape:swatch="solid">
      <stop
         style="stop-color:#989898;stop-opacity:1;"
         offset="0"
         id="stop5960" />
    </linearGradient>
  </defs>
  <sodipodi:namedview
     id="namedview932"
     pagecolor="#ffffff"
     bordercolor="#666666"
     borderopacity="1.0"
     inkscape:pageshadow="2"
     inkscape:pageopacity="0.0"
     inkscape:pagecheckerboard="0"
     showgrid="false"
     inkscape:zoom="2.246875"
     inkscape:cx="-20.472879"
     inkscape:cy="211.62726"
     inkscape:window-width="3840"
     inkscape:window-height="2071"
     inkscape:window-x="-9"
     inkscape:window-y="-9"
     inkscape:window-maximized="1"
     inkscape:current-layer="g928" />
  <g
     transform="translate(0,-0.13195806)"
     id="g928">
    <path
       d="m 32,3.2 0.1,0 0.4,0.2 0.7,1 0.8,1.9 0.6,2.5 0.2,2.5 0.1,2.7 0,9.3 6.5,4.6 -0.3,-0.8 -0.2,0.3 -0.2,-0.3 -0.2,0.1 -0.1,-0.3 -0.2,-0.9 -0.1,-1.3 0,-1.6 0.1,-1.2 0.1,-0.4 0.2,-0.2 3.2,0 0.2,0.2 0.1,0.4 0.2,1.2 0,1.6 -0.1,1.3 -0.4,1.4 -0.1,-0.3 -0.1,0.3 -0.1,-0.3 -0.2,0.3 -0.2,-0.3 -0.4,1.6 17.5,12.3 0.6,0.6 0.4,0.6 1.2,2 0,1 -1.6,-1.4 -0.7,-0.5 -0.9,-0.5 -7.5,-3.2 -0.1,0.8 -0.2,0.3 -0.3,-0.6 -0.1,-0.8 -3.8,-1.6 -0.1,0.8 -0.2,0.3 -0.3,-0.7 -0.1,-0.7 -3.2,-1.4 -2,0 -0.1,0.7 -0.2,0.4 -0.2,-0.4 -0.1,-0.7 -5.7,0 0,9.1 -0.1,1.8 -0.1,1.6 -0.5,3.3 0,0.4 0.2,0.4 7,6.4 0.2,0.3 0.1,0.3 0.4,1.3 -9.2,-3.4 -0.7,2.9 -0.4,0 -0.7,-2.9 -9.2,3.4 0.4,-1.3 0.1,-0.3 0.2,-0.3 7,-6.4 0.2,-0.4 0,-0.4 -0.5,-3.3 -0.1,-1.7 -0.1,-1.7 0,-9.1 -5.7,0 -0.1,0.7 -0.2,0.5 -0.2,-0.5 -0.1,-0.7 -2,0 -3.3,1.4 -0.1,0.6 -0.3,0.6 -0.2,-0.3 -0.1,-0.7 -3.6,1.7 -0.1,0.6 -0.3,0.6 -0.2,-0.3 -0.1,-0.6 -7.6,3.2 -0.9,0.5 -0.7,0.5 -1.6,1.4 0,-1 1.2,-2 0.4,-0.6 0.6,-0.6 17.5,-12.3 -0.4,-1.6 -0.2,0.3 -0.2,-0.3 -0.1,0.3 -0.1,-0.3 -0.1,0.3 -0.3,-1.4 -0.1,-1.3 0,-1.6 0.1,-1.2 0.1,-0.4 0.2,-0.2 3.2,0 0.2,0.2 0.1,0.4 0.1,1.2 0,1.6 -0.1,1.3 -0.2,0.9 -0.1,0.3 -0.2,-0.1 -0.2,0.3 -0.2,-0.3 -0.3,0.8 6.5,-4.6 0,-9.3 0.1,-2.7 0.2,-2.5 0.6,-2.5 0.8,-1.9 0.7,-1 0.4,-0.2 z"
       fill="#6ba7ff"
       stroke="#6ba7ff"
       stroke-width="0.1"
       id="path926"
       style="fill:#6ba7ff;fill-opacity:1;stroke:#414141;stroke-opacity:1;stroke-width:2.4;stroke-miterlimit:4;stroke-dasharray:none;stroke-dashoffset:20;stroke-linejoin:round;stroke-linecap:round;paint-order:stroke fill markers" />
  </g>
</svg>
